<!-- https://yarduon.com -->
<svg width="95" height="90" version="1.1" viewBox="0 0 25.135 23.812" xmlns="http://www.w3.org/2000/svg">
<g>
<g transform="matrix(.59985 0 0 .59985 -66.019 -33.696)" fill="#fefefe">
<path d="m126.88 75.598v-18.612l-16.133 9.335z" stroke-linecap="round" stroke-linejoin="round" stroke-width=".65987"/>
<g transform="matrix(1.3432 0 0 1.3432 -53.003 -14.928)">
<path transform="scale(.26458)" d="m531.18 218.2c-22.365 1e-3 -35.6 4.4496-36.888 26.777l4.2471 1.4976c5.5189-16.676 15.021-16.437 32.587-16.437 17.567-2.5e-4 33.155 11.26 38.674 27.938h3.5195c-1.2884-22.329-19.771-39.775-42.137-39.775z" fill="#fefefe" stroke-linecap="round" stroke-linejoin="round" stroke-width="2.494"/>
</g>
</g>
<g transform="matrix(-.59985 0 0 -.59985 91.126 57.474)" fill="#fff">
<path d="m126.88 75.598v-18.612l-16.133 9.335z" stroke-linecap="round" stroke-linejoin="round" stroke-width=".65987"/>
<g transform="matrix(1.3432 0 0 1.3432 -53.003 -14.928)">
<path transform="scale(.26458)" d="m531.18 218.2c-22.365 1e-3 -35.6 4.4496-36.888 26.777l4.2471 1.4976c5.5189-16.676 15.021-16.437 32.587-16.437 17.567-2.5e-4 33.155 11.26 38.674 27.938h3.5195c-1.2884-22.329-19.771-39.775-42.137-39.775z" fill="#fff" stroke-linecap="round" stroke-linejoin="round" stroke-width="2.494"/>
</g>
</g>
</g>
</svg>