<!-- https://yarduon.com -->
<svg version="1.1" viewBox="0 0 1920 340" xmlns="http://www.w3.org/2000/svg">
<g transform="rotate(180 959.35 155)">
<path d="m0.94796 207.58 1920.4-0.02276v102.44l-1923.9 2e-3 -0.12241-102.53z" fill="#f2ca4a"/>
<path d="m536.78 289.9 253.6-281.71 254.04 279.73z" fill="#f2ca4a"/>
<path d="m866.11 289.9 253.6-281.71 254.04 279.73z" fill="#f2ca4a"/>
<rect x="790.38" y="8.1831" width="329.33" height="275.62" fill="#f2ca4a"/>
<rect x="-2.6871" y="183.02" width="643.46" height="32.052" rx=".0058057" ry=".0077741" fill="#5c5c5c"/>
<path d="m620.21 209.41 20.567 5.6643 184-208.91-36.762-0.39723-151.98 169.64-11.5 14.617z" fill="#5c5c5c"/>
<path d="m1091.7 18.589 28.036-10.406 181.28 197.59-28.363 9.3-156.73-167.12-11.837-14.346z" fill="#5c5c5c"/>
<path d="m778.13 27.447 361.35 2.4647-19.773-23.732-329.33 1e-3z" fill="#5c5c5c"/>
<ellipse cx="1134.5" cy="46.554" rx="7.0018" ry="6.993" fill="#c8cac7"/>
<ellipse cx="751.73" cy="69.405" rx="7.0018" ry="6.993" fill="#c8cac7"/>
<ellipse cx="728.78" cy="93.089" rx="7.0018" ry="6.993" fill="#c8cac7"/>
<ellipse cx="683.25" cy="145.59" rx="7.0018" ry="6.993" fill="#c8cac7"/>
<ellipse cx="661.07" cy="170.94" rx="7.0018" ry="6.993" fill="#c8cac7"/>
<ellipse cx="705.55" cy="119.56" rx="7.0018" ry="6.993" fill="#c8cac7"/>
<ellipse cx="577.27" cy="199.04" rx="9.1912" ry="9.1797" fill="#c8cac7"/>
<ellipse cx="521.27" cy="199.04" rx="9.1912" ry="9.1797" fill="#c8cac7"/>
<ellipse cx="467.32" cy="199.04" rx="9.1912" ry="9.1797" fill="#c8cac7"/>
<ellipse cx="412.12" cy="199.04" rx="9.1912" ry="9.1797" fill="#c8cac7"/>
<ellipse cx="1111" cy="19.165" rx="7.0018" ry="6.993" fill="#c8cac7"/>
<ellipse cx="139.94" cy="199.04" rx="9.1912" ry="9.1797" fill="#c8cac7"/>
<ellipse cx="85.121" cy="199.04" rx="9.1912" ry="9.1797" fill="#c8cac7"/>
<ellipse cx="30.019" cy="199.04" rx="9.1912" ry="9.1797" fill="#c8cac7"/>
<ellipse cx="193.6" cy="199.04" rx="9.1912" ry="9.1797" fill="#c8cac7"/>
<ellipse cx="246.92" cy="199.04" rx="9.1912" ry="9.1797" fill="#c8cac7"/>
<ellipse cx="302.34" cy="199.04" rx="9.1912" ry="9.1797" fill="#c8cac7"/>
<ellipse cx="356.95" cy="199.04" rx="9.1912" ry="9.1797" fill="#c8cac7"/>
<ellipse cx="920.33" cy="16.917" rx="7.0018" ry="6.993" fill="#c8cac7"/>
<ellipse cx="969.14" cy="17.005" rx="7.0018" ry="6.993" fill="#c8cac7"/>
<ellipse cx="1017.5" cy="17.081" rx="7.0018" ry="6.993" fill="#c8cac7"/>
<ellipse cx="876.42" cy="16.858" rx="7.0018" ry="6.993" fill="#c8cac7"/>
<ellipse cx="1067" cy="17.786" rx="7.0018" ry="6.993" fill="#c8cac7"/>
<ellipse cx="794.72" cy="18.326" rx="7.0018" ry="6.993" fill="#c8cac7"/>
<ellipse cx="773.84" cy="42.984" rx="7.0018" ry="6.993" fill="#c8cac7"/>
<ellipse cx="836.26" cy="16.738" rx="7.0018" ry="6.993" fill="#c8cac7"/>
<ellipse cx="631.58" cy="199.04" rx="9.1912" ry="9.1797" fill="#c8cac7"/>
<ellipse cx="1157.8" cy="72.682" rx="7.0018" ry="6.993" fill="#c8cac7"/>
<ellipse cx="1182.2" cy="97.62" rx="7.0018" ry="6.993" fill="#c8cac7"/>
<ellipse cx="1205.1" cy="122.94" rx="7.0018" ry="6.993" fill="#c8cac7"/>
<ellipse cx="1226.8" cy="146.9" rx="7.0018" ry="6.993" fill="#c8cac7"/>
<ellipse cx="1250.4" cy="171.2" rx="7.0018" ry="6.993" fill="#c8cac7"/>
<rect x="1272.6" y="183.02" width="648.76" height="32.052" rx=".0058535" ry=".0077741" fill="#5c5c5c"/>
<ellipse cx="1720.8" cy="199.04" rx="9.1912" ry="9.1797" fill="#c8cac7"/>
<ellipse cx="1666.3" cy="199.04" rx="9.1912" ry="9.1797" fill="#c8cac7"/>
<ellipse cx="1612.1" cy="199.04" rx="9.1912" ry="9.1797" fill="#c8cac7"/>
<ellipse cx="1556.6" cy="199.04" rx="9.1912" ry="9.1797" fill="#c8cac7"/>
<ellipse cx="1281.8" cy="199.04" rx="9.1912" ry="9.1797" fill="#c8cac7"/>
<ellipse cx="1337" cy="199.04" rx="9.1912" ry="9.1797" fill="#c8cac7"/>
<ellipse cx="1392.3" cy="199.04" rx="9.1912" ry="9.1797" fill="#c8cac7"/>
<ellipse cx="1447.5" cy="199.04" rx="9.1912" ry="9.1797" fill="#c8cac7"/>
<ellipse cx="1502.3" cy="199.04" rx="9.1912" ry="9.1797" fill="#c8cac7"/>
<ellipse cx="1775.3" cy="199.04" rx="9.1912" ry="9.1797" fill="#c8cac7"/>
<ellipse cx="1831.4" cy="199.04" rx="9.1912" ry="9.1797" fill="#c8cac7"/>
<ellipse cx="1886.6" cy="199.04" rx="9.1912" ry="9.1797" fill="#c8cac7"/>
</g>
</svg>